# xmcd
#
# Track frame offsets: 
#        150
#        10714
#        23219
#        34274
#        46525
#        60644
#        72346
#        85011
#        98554
#        110199
#        122114
#        135180
#        147116
#        158871
#        170442
#        185365
#        198034
#        213429
#
# Disc length: 3025 seconds
#
# Revision: 0
# Processed by: cddbd v1.5.2PL0 Copyright (c) Steve Scherf et al.
# Submitted via: ExactAudioCopy v0.95b4
#
DISCID=e70bcf12
DTITLE=Snooky Pryor - An Introduction To Snooky Pryor
DYEAR=2006
DGENRE=Blues
TTITLE0=Snooky And Moody's Boogie
TTITLE1=Telephone Blues
TTITLE2=Boogy Fool
TTITLE3=Raisin' Fool
TTITLE4=Fine Boogie
TTITLE5=I'm Getting Tired
TTITLE6=Going Back On The Road
TTITLE7=Hold Me In Your Arms
TTITLE8=(Real) Fine Boogie
TTITLE9=Harp Instrumental
TTITLE10=Cryin' Shame
TTITLE11=Eighty Nine Ten
TTITLE12=Stop The Train Conductor
TTITLE13=Walking Boogie
TTITLE14=Uncle Sam Don't Take My Man
TTITLE15=Boogie Twist
TTITLE16=I Can't Feel Good No More
TTITLE17=Big Guns
EXTD=
EXTT0=
EXTT1=
EXTT2=
EXTT3=
EXTT4=
EXTT5=
EXTT6=
EXTT7=
EXTT8=
EXTT9=
EXTT10=
EXTT11=
EXTT12=
EXTT13=
EXTT14=
EXTT15=
EXTT16=
EXTT17=
PLAYORDER=
